<svg width="179" height="354" viewBox="0 0 179 354" fill="none" xmlns="http://www.w3.org/2000/svg">
<path d="M-896 215.133C-819.89 157.996 -785.386 105.248 -701.108 68.8243C-627.005 36.798 -580.329 41.4091 -502.168 30.8405C-422.541 20.0735 -376.367 31.4395 -297.445 14.6622C-226.576 -0.403287 -181.014 1.0474 -119.903 -45.1273C-62.6157 -88.4121 -39.5609 -130.637 -2.50477 -199.173C11.779 -225.591 20.9163 -240.102 30.4591 -269.513C38.7638 -295.109 40.3841 -310.785 44.917 -337.744C51.0352 -374.131 53.3333 -394.939 55.3266 -432" stroke="#2B2E4A" stroke-opacity="0.6"/>
<path d="M-892.854 218.632C-816.744 161.496 -782.24 108.748 -697.963 72.3242C-623.859 40.2979 -577.183 44.909 -499.022 34.3403C-419.395 23.5734 -373.221 34.9393 -294.299 18.162C-223.43 3.09659 -177.868 4.54728 -116.757 -41.6274C-59.4701 -84.9122 -36.4152 -127.137 0.640862 -195.673C14.9246 -222.091 24.0619 -236.602 33.6048 -266.014C41.9095 -291.609 43.5298 -307.286 48.0626 -334.244C54.1808 -370.631 56.4789 -391.439 58.4723 -428.5" stroke="#2B2E4A" stroke-opacity="0.6"/>
<path d="M-889.709 222.132C-813.599 164.995 -779.095 112.247 -694.817 75.824C-620.714 43.7977 -574.038 48.4088 -495.877 37.8402C-416.25 27.0732 -370.076 38.4392 -291.154 21.6618C-220.285 6.59641 -174.723 8.0471 -113.612 -38.1276C-56.3249 -81.4124 -33.2701 -123.637 3.786 -192.173C18.0697 -218.591 27.2071 -233.102 36.7499 -262.514C45.0546 -288.109 46.6749 -303.786 51.2078 -330.744C57.3259 -367.131 59.624 -387.94 61.6174 -425" stroke="#2B2E4A" stroke-opacity="0.6"/>
<path d="M-886.564 225.632C-810.454 168.495 -775.949 115.747 -691.672 79.3239C-617.568 47.2976 -570.893 51.9087 -492.732 41.34C-413.104 30.5731 -366.93 41.939 -288.009 25.1617C-217.14 10.0963 -171.578 11.547 -110.466 -34.6277C-53.1793 -77.9125 -30.1245 -120.137 6.93163 -188.673C21.2154 -215.091 30.3527 -229.603 39.8955 -259.014C48.2002 -284.609 49.8205 -300.286 54.3534 -327.244C60.4716 -363.631 62.7697 -384.44 64.763 -421.5" stroke="#2B2E4A" stroke-opacity="0.6"/>
<path d="M-883.418 229.132C-807.308 171.995 -772.804 119.247 -688.526 82.8238C-614.423 50.7975 -567.747 55.4086 -489.586 44.84C-409.959 34.073 -363.784 45.439 -284.863 28.6617C-213.994 13.5962 -168.432 15.0469 -107.32 -31.1278C-50.0336 -74.4126 -26.9787 -116.637 10.0774 -185.173C24.3611 -211.592 33.4984 -226.103 43.0413 -255.514C51.346 -281.109 52.9663 -296.786 57.4991 -323.744C63.6173 -360.131 65.9154 -380.94 67.9088 -418" stroke="#2B2E4A" stroke-opacity="0.6"/>
<path d="M-880.272 232.632C-804.162 175.495 -769.658 122.747 -685.38 86.3237C-611.277 54.2973 -564.601 58.9084 -486.44 48.3398C-406.813 37.5728 -360.639 48.9388 -281.717 32.1615C-210.848 17.096 -165.286 18.5467 -104.175 -27.6279C-46.8879 -70.9128 -23.8331 -113.138 13.223 -181.674C27.5067 -208.092 36.6441 -222.603 46.1869 -252.014C54.4916 -277.609 56.1119 -293.286 60.6448 -320.244C66.763 -356.631 69.0611 -377.44 71.0544 -414.501" stroke="#2B2E4A" stroke-opacity="0.6"/>
<path d="M-877.127 236.132C-801.017 178.995 -766.513 126.247 -682.236 89.8235C-608.132 57.7972 -561.456 62.4083 -483.296 51.8397C-403.668 41.0727 -357.494 52.4387 -278.572 35.6614C-207.704 20.5959 -162.141 22.0466 -101.03 -24.1281C-43.7432 -67.4129 -20.6883 -109.638 16.3678 -178.174C30.6515 -204.592 39.7888 -219.103 49.3317 -248.514C57.6364 -274.11 59.2567 -289.786 63.7895 -316.745C69.9077 -353.131 72.2058 -373.94 74.1992 -411.001" stroke="#2B2E4A" stroke-opacity="0.6"/>
<path d="M-873.982 239.632C-797.872 182.495 -763.367 129.747 -679.09 93.3234C-604.987 61.2971 -558.311 65.9082 -480.15 55.3396C-400.522 44.5726 -354.348 55.9385 -275.427 39.1612C-204.558 24.0958 -158.996 25.5465 -97.8842 -20.6282C-40.5974 -63.913 -17.5425 -106.138 19.5135 -174.674C33.7973 -201.092 42.9346 -215.603 52.4774 -245.014C60.7821 -270.61 62.4024 -286.286 66.9353 -313.245C73.0535 -349.631 75.3516 -370.44 77.3449 -407.501" stroke="#2B2E4A" stroke-opacity="0.6"/>
<path d="M-870.836 243.132C-794.726 185.995 -760.222 133.247 -675.944 96.8233C-601.841 64.797 -555.165 69.4081 -477.004 58.8394C-397.377 48.0725 -351.203 59.4384 -272.281 42.6611C-201.412 27.5957 -155.85 29.0464 -94.7388 -17.1283C-37.452 -60.4131 -14.3972 -102.638 22.6589 -171.174C36.9427 -197.592 46.08 -212.103 55.6228 -241.514C63.9275 -267.11 65.5478 -282.786 70.0807 -309.745C76.1989 -346.132 78.497 -366.94 80.4903 -404.001" stroke="#2B2E4A" stroke-opacity="0.6"/>
<path d="M-867.691 246.631C-791.581 189.494 -757.076 136.747 -672.799 100.323C-598.696 68.2969 -552.02 72.908 -473.859 62.3393C-394.231 51.5723 -348.057 62.9383 -269.136 46.161C-198.267 31.0956 -152.705 32.5462 -91.5932 -13.6284C-34.3064 -56.9133 -11.2515 -99.1381 25.8046 -167.674C40.0883 -194.092 49.2256 -208.603 58.7685 -238.015C67.0731 -263.61 68.6935 -279.287 73.2263 -306.245C79.3445 -342.632 81.6426 -363.44 83.636 -400.501" stroke="#2B2E4A" stroke-opacity="0.6"/>
<path d="M-864.546 250.131C-788.436 192.994 -753.931 140.247 -669.654 103.823C-595.55 71.7967 -548.874 76.4078 -470.714 65.8392C-391.086 55.0722 -344.912 66.4382 -265.99 49.6609C-195.122 34.5954 -149.56 36.0461 -88.4481 -10.1286C-31.1612 -53.4134 -8.10639 -95.6382 28.9497 -164.174C43.2334 -190.592 52.3708 -205.103 61.9136 -234.515C70.2183 -260.11 71.8386 -275.787 76.3715 -302.745C82.4896 -339.132 84.7877 -359.941 86.7811 -397.001" stroke="#2B2E4A" stroke-opacity="0.6"/>
<path d="M-861.4 253.631C-785.29 196.494 -750.786 143.746 -666.508 107.323C-592.405 75.2966 -545.729 79.9077 -467.568 69.339C-387.941 58.572 -341.767 69.938 -262.845 53.1607C-191.976 38.0952 -146.414 39.5459 -85.3027 -6.62874C-28.0159 -49.9136 -4.961 -92.1384 32.0951 -160.674C46.3788 -187.092 55.5161 -201.604 65.059 -231.015C73.3637 -256.61 74.984 -272.287 79.5168 -299.245C85.635 -335.632 87.9331 -356.441 89.9265 -393.501" stroke="#2B2E4A" stroke-opacity="0.6"/>
<path d="M-858.255 257.131C-782.145 199.994 -747.64 147.246 -663.363 110.823C-589.259 78.7964 -542.583 83.4075 -464.423 72.8389C-384.795 62.0719 -338.621 73.4379 -259.699 56.6606C-188.831 41.5951 -143.269 43.0458 -82.157 -3.12886C-24.8702 -46.4137 -1.81537 -88.6385 35.2407 -157.175C49.5244 -183.593 58.6618 -198.104 68.2046 -227.515C76.5093 -253.11 78.1296 -268.787 82.6625 -295.745C88.7807 -332.132 91.0788 -352.941 93.0721 -390.002" stroke="#2B2E4A" stroke-opacity="0.6"/>
<path d="M-855.109 260.631C-778.999 203.494 -744.495 150.746 -660.217 114.323C-586.114 82.2963 -539.438 86.9074 -461.277 76.3388C-381.65 65.5718 -335.475 76.9378 -256.554 60.1604C-185.685 45.095 -140.123 46.5457 -79.0114 0.371021C-21.7246 -42.9138 1.33026 -85.1387 38.3863 -153.675C52.6701 -180.093 61.8074 -194.604 71.3502 -224.015C79.6549 -249.61 81.2752 -265.287 85.8081 -292.245C91.9263 -328.632 94.2244 -349.441 96.2178 -386.502" stroke="#2B2E4A" stroke-opacity="0.6"/>
<path d="M-851.964 264.131C-775.854 206.994 -741.349 154.246 -657.072 117.823C-582.969 85.7962 -536.293 90.4073 -458.132 79.8386C-378.504 69.0717 -332.33 80.4376 -253.409 63.6603C-182.54 48.5949 -136.978 50.0456 -75.8663 3.8709C-18.5795 -39.4139 4.4754 -81.6388 41.5315 -150.175C55.8152 -176.593 64.9525 -191.104 74.4954 -220.515C82.8001 -246.111 84.4204 -261.787 88.9532 -288.746C95.0714 -325.132 97.3695 -345.941 99.3629 -383.002" stroke="#2B2E4A" stroke-opacity="0.6"/>
<path d="M-848.818 267.631C-772.708 210.494 -738.204 157.746 -653.927 121.322C-579.823 89.2961 -533.147 93.9072 -454.986 83.3385C-375.359 72.5716 -329.185 83.9375 -250.263 67.1602C-179.394 52.0948 -133.832 53.5454 -72.7209 7.37078C-15.4341 -35.9141 7.62078 -78.1389 44.6769 -146.675C58.9606 -173.093 68.0979 -187.604 77.6408 -217.015C85.9455 -242.611 87.5658 -258.287 92.0986 -285.246C98.2168 -321.633 100.515 -342.441 102.508 -379.502" stroke="#2B2E4A" stroke-opacity="0.6"/>
<path d="M-845.673 271.13C-769.563 213.994 -735.059 161.246 -650.781 124.822C-576.678 92.7959 -530.002 97.407 -451.841 86.8384C-372.214 76.0714 -326.04 87.4374 -247.118 70.6601C-176.249 55.5946 -130.687 57.0453 -69.5755 10.8707C-12.2887 -32.4142 10.7662 -74.639 47.8223 -143.175C62.106 -169.593 71.2433 -184.104 80.7862 -213.516C89.0908 -239.111 90.7112 -254.787 95.244 -281.746C101.362 -318.133 103.66 -338.941 105.654 -376.002" stroke="#2B2E4A" stroke-opacity="0.6"/>
<path d="M-842.527 274.63C-766.417 217.493 -731.913 164.746 -647.635 128.322C-573.532 96.2958 -526.856 100.907 -448.695 90.3383C-369.068 79.5713 -322.894 90.9373 -243.972 74.16C-173.103 59.0945 -127.541 60.5452 -66.4295 14.3705C-9.14269 -28.9143 13.9122 -71.1392 50.9683 -139.675C65.252 -166.093 74.3893 -180.604 83.9322 -210.016C92.2368 -235.611 93.8572 -251.288 98.39 -278.246C104.508 -314.633 106.806 -335.441 108.8 -372.502" stroke="#2B2E4A" stroke-opacity="0.6"/>
<path d="M-839.382 278.13C-763.272 220.993 -728.767 168.245 -644.49 131.822C-570.386 99.7956 -523.711 104.407 -445.55 93.8381C-365.922 83.0711 -319.748 94.4371 -240.827 77.6598C-169.958 62.5943 -124.396 64.045 -63.2841 17.8703C-5.9973 -25.4145 17.0576 -67.6393 54.1136 -136.175C68.3974 -162.593 77.5347 -177.105 87.0775 -206.516C95.3822 -232.111 97.0025 -247.788 101.535 -274.746C107.654 -311.133 109.952 -331.942 111.945 -369.002" stroke="#2B2E4A" stroke-opacity="0.6"/>
<path d="M-836.236 281.63C-760.126 224.493 -725.622 171.745 -641.344 135.322C-567.241 103.296 -520.565 107.907 -442.404 97.338C-362.777 86.571 -316.603 97.937 -237.681 81.1596C-166.812 66.0942 -121.25 67.5449 -60.1387 21.3702C-2.85191 -21.9146 20.2029 -64.1395 57.259 -132.675C71.5428 -159.094 80.6801 -173.605 90.2229 -203.016C98.5276 -228.611 100.148 -244.288 104.681 -271.246C110.799 -307.633 113.097 -328.442 115.09 -365.503" stroke="#2B2E4A" stroke-opacity="0.6"/>
<path d="M-833.09 285.13C-756.98 227.993 -722.476 175.245 -638.198 138.822C-564.095 106.795 -517.419 111.406 -439.258 100.838C-359.631 90.0709 -313.457 101.437 -234.535 84.6595C-163.666 69.5941 -118.104 71.0448 -56.9929 24.8701C0.293959 -18.4147 23.3488 -60.6396 60.4049 -129.176C74.6886 -155.594 83.826 -170.105 93.3688 -199.516C101.673 -225.111 103.294 -240.788 107.827 -267.746C113.945 -304.133 116.243 -324.942 118.236 -362.003" stroke="#2B2E4A" stroke-opacity="0.6"/>
<path d="M-829.945 288.63C-753.835 231.493 -719.331 178.745 -635.053 142.322C-560.95 110.295 -514.274 114.906 -436.113 104.338C-356.486 93.5708 -310.311 104.937 -231.39 88.1594C-160.521 73.094 -114.959 74.5447 -53.8475 28.37C3.43935 -14.9149 26.4942 -57.1397 63.5503 -125.676C77.834 -152.094 86.9713 -166.605 96.5142 -196.016C104.819 -221.611 106.439 -237.288 110.972 -264.246C117.09 -300.633 119.388 -321.442 121.382 -358.503" stroke="#2B2E4A" stroke-opacity="0.6"/>
<path d="M-826.8 292.13C-750.69 234.993 -716.185 182.245 -631.908 145.821C-557.804 113.795 -511.128 118.406 -432.968 107.838C-353.34 97.0706 -307.166 108.437 -228.245 91.6592C-157.376 76.5938 -111.814 78.0445 -50.7021 31.8698C6.58473 -11.415 29.6396 -53.6399 66.6957 -122.176C80.9794 -148.594 90.1167 -163.105 99.6596 -192.516C107.964 -218.112 109.585 -233.788 114.117 -260.747C120.236 -297.133 122.534 -317.942 124.527 -355.003" stroke="#2B2E4A" stroke-opacity="0.6"/>
<path d="M-823.654 295.63C-747.544 238.493 -713.04 185.745 -628.762 149.321C-554.659 117.295 -507.983 121.906 -429.822 111.337C-350.195 100.57 -304.021 111.936 -225.099 95.1591C-154.23 80.0937 -108.668 81.5444 -47.5567 35.3697C9.73012 -7.91516 32.785 -50.14 69.8411 -118.676C84.1248 -145.094 93.2621 -159.605 102.805 -189.017C111.11 -214.612 112.73 -230.288 117.263 -257.247C123.381 -293.634 125.679 -314.442 127.672 -351.503" stroke="#2B2E4A" stroke-opacity="0.6"/>
<path d="M-820.508 299.129C-744.398 241.993 -709.894 189.245 -625.617 152.821C-551.513 120.795 -504.837 125.406 -426.677 114.837C-347.049 104.07 -300.875 115.436 -221.953 98.659C-151.085 83.5936 -105.522 85.0443 -44.4109 38.8696C12.8759 -4.41522 35.9307 -46.6401 72.9868 -115.176C87.2705 -141.594 96.4079 -156.105 105.951 -185.517C114.255 -211.112 115.876 -226.789 120.409 -253.747C126.527 -290.134 128.825 -310.942 130.818 -348.003" stroke="#2B2E4A" stroke-opacity="0.6"/>
<path d="M-817.363 302.629C-741.253 245.492 -706.749 192.744 -622.471 156.321C-548.368 124.295 -501.692 128.906 -423.531 118.337C-343.904 107.57 -297.73 118.936 -218.808 102.159C-147.939 87.0934 -102.377 88.5441 -41.2658 42.3694C16.021 -0.915406 39.0759 -43.1403 76.132 -111.676C90.4157 -138.094 99.553 -152.605 109.096 -182.017C117.401 -207.612 119.021 -223.289 123.554 -250.247C129.672 -286.634 131.97 -307.443 133.963 -344.503" stroke="#2B2E4A" stroke-opacity="0.6"/>
<path d="M-814.218 306.129C-738.108 248.992 -703.604 196.244 -619.326 159.821C-545.223 127.795 -498.547 132.406 -420.386 121.837C-340.759 111.07 -294.585 122.436 -215.663 105.659C-144.794 90.5933 -99.232 92.044 -38.1205 45.8693C19.1663 2.58447 42.2211 -39.6404 79.2772 -108.176C93.5609 -134.594 102.698 -149.106 112.241 -178.517C120.546 -204.112 122.166 -219.789 126.699 -246.747C132.817 -283.134 135.115 -303.943 137.109 -341.003" stroke="#2B2E4A" stroke-opacity="0.6"/>
<path d="M-811.073 309.629C-734.963 252.492 -700.458 199.744 -616.181 163.321C-542.077 131.294 -495.401 135.906 -417.241 125.337C-337.613 114.57 -291.439 125.936 -212.517 109.159C-141.649 94.0932 -96.0865 95.5439 -34.975 49.3692C22.3118 6.08435 45.3666 -36.1405 82.4227 -104.676C96.7065 -131.095 105.844 -145.606 115.387 -175.017C123.691 -200.612 125.312 -216.289 129.844 -243.247C135.963 -279.634 138.261 -300.443 140.254 -337.504" stroke="#2B2E4A" stroke-opacity="0.6"/>
<path d="M-807.927 313.129C-731.817 255.992 -697.312 203.244 -613.035 166.821C-538.932 134.794 -492.256 139.405 -414.095 128.837C-334.467 118.07 -288.293 129.436 -209.372 112.658C-138.503 97.593 -92.9406 99.0437 -31.8292 52.869C25.4577 9.58417 48.5125 -32.6407 85.5686 -101.177C99.8523 -127.595 108.99 -142.106 118.532 -171.517C126.837 -197.112 128.457 -212.789 132.99 -239.747C139.109 -276.134 141.407 -296.943 143.4 -334.004" stroke="#2B2E4A" stroke-opacity="0.6"/>
<path d="M-804.781 316.629C-728.671 259.492 -694.167 206.744 -609.889 170.321C-535.786 138.294 -489.11 142.905 -410.949 132.337C-331.322 121.57 -285.148 132.936 -206.226 116.158C-135.357 101.093 -89.7952 102.544 -28.6838 56.3689C28.603 13.0841 51.6579 -29.1407 88.714 -97.6767C102.998 -124.095 112.135 -138.606 121.678 -168.017C129.983 -193.613 131.603 -209.289 136.136 -236.248C142.254 -272.634 144.552 -293.443 146.545 -330.504" stroke="#2B2E4A" stroke-opacity="0.6"/>
<path d="M-801.636 320.129C-725.526 262.992 -691.022 210.244 -606.744 173.82C-532.641 141.794 -485.965 146.405 -407.804 135.837C-328.177 125.07 -282.002 136.436 -203.081 119.658C-132.212 104.593 -86.6498 106.043 -25.5384 59.8688C31.7484 16.584 54.8033 -25.6409 91.8594 -94.1769C106.143 -120.595 115.28 -135.106 124.823 -164.517C133.128 -190.113 134.748 -205.789 139.281 -232.748C145.399 -269.134 147.697 -289.943 149.691 -327.004" stroke="#2B2E4A" stroke-opacity="0.6"/>
<path d="M-798.49 323.628C-722.38 266.492 -687.876 213.744 -603.599 177.32C-529.495 145.294 -482.819 149.905 -404.659 139.336C-325.031 128.569 -278.857 139.935 -199.935 123.158C-129.067 108.093 -83.5045 109.543 -22.393 63.3686C34.8938 20.0838 57.9487 -22.141 95.0048 -90.677C109.288 -117.095 118.426 -131.606 127.969 -161.018C136.273 -186.613 137.894 -202.289 142.427 -229.248C148.545 -265.635 150.843 -286.443 152.836 -323.504" stroke="#2B2E4A" stroke-opacity="0.6"/>
<path d="M-795.345 327.128C-719.235 269.991 -684.731 217.244 -600.453 180.82C-526.35 148.794 -479.674 153.405 -401.513 142.836C-321.886 132.069 -275.711 143.435 -196.79 126.658C-125.921 111.593 -80.3588 113.043 -19.2474 66.8685C38.0394 23.5837 61.0943 -18.6412 98.1504 -87.1772C112.434 -113.595 121.571 -128.106 131.114 -157.518C139.419 -183.113 141.039 -198.79 145.572 -225.748C151.69 -262.135 153.988 -282.943 155.982 -320.004" stroke="#2B2E4A" stroke-opacity="0.6"/>
<path d="M-792.2 330.628C-716.09 273.491 -681.586 220.743 -597.308 184.32C-523.205 152.294 -476.529 156.905 -398.368 146.336C-318.741 135.569 -272.566 146.935 -193.645 130.158C-122.776 115.092 -77.2139 116.543 -16.1025 70.3683C41.1843 27.0835 64.2392 -15.1414 101.295 -83.6774C115.579 -110.095 124.716 -124.607 134.259 -154.018C142.564 -179.613 144.184 -195.29 148.717 -222.248C154.835 -258.635 157.133 -279.444 159.127 -316.504" stroke="#2B2E4A" stroke-opacity="0.6"/>
<path d="M-789.054 334.128C-712.944 276.991 -678.44 224.243 -594.162 187.82C-520.059 155.794 -473.383 160.405 -395.222 149.836C-315.595 139.069 -269.421 150.435 -190.499 133.658C-119.63 118.592 -74.0683 120.043 -12.9568 73.8683C44.33 30.5835 67.3848 -11.6414 104.441 -80.1774C118.725 -106.595 127.862 -121.107 137.405 -150.518C145.709 -176.113 147.33 -191.79 151.863 -218.748C157.981 -255.135 160.279 -275.944 162.272 -313.004" stroke="#2B2E4A" stroke-opacity="0.6"/>
<path d="M-785.909 337.628C-709.799 280.491 -675.295 227.743 -591.017 191.32C-516.914 159.293 -470.238 163.905 -392.077 153.336C-312.45 142.569 -266.276 153.935 -187.354 137.158C-116.485 122.092 -70.9232 123.543 -9.8117 77.3682C47.4751 34.0833 70.53 -8.14154 107.586 -76.6775C121.87 -103.096 131.007 -117.607 140.55 -147.018C148.855 -172.613 150.475 -188.29 155.008 -215.248C161.126 -251.635 163.424 -272.444 165.417 -309.505" stroke="#2B2E4A" stroke-opacity="0.6"/>
<path d="M-782.763 341.128C-706.653 283.991 -672.149 231.243 -587.871 194.82C-513.768 162.793 -467.092 167.404 -388.931 156.836C-309.304 146.069 -263.13 157.435 -184.208 140.657C-113.339 125.592 -67.7772 127.043 -6.66571 80.868C50.6211 37.5831 73.676 -4.64172 110.732 -73.1777C125.016 -99.5958 134.153 -114.107 143.696 -143.518C152.001 -169.113 153.621 -184.79 158.154 -211.748C164.272 -248.135 166.57 -268.944 168.563 -306.005" stroke="#2B2E4A" stroke-opacity="0.6"/>
<path d="M-779.618 344.628C-703.508 287.491 -669.003 234.743 -584.726 198.319C-510.623 166.293 -463.947 170.904 -385.786 160.336C-306.159 149.569 -259.984 160.935 -181.063 144.157C-110.194 129.092 -64.6318 130.543 -3.52032 84.3678C53.7665 41.083 76.8213 -1.14184 113.877 -69.6778C128.161 -96.0959 137.298 -110.607 146.841 -140.018C155.146 -165.614 156.766 -181.29 161.299 -208.249C167.417 -244.635 169.715 -265.444 171.709 -302.505" stroke="#2B2E4A" stroke-opacity="0.6"/>
<path d="M-776.472 348.128C-700.362 290.991 -665.858 238.243 -581.581 201.819C-507.477 169.793 -460.801 174.404 -382.641 163.835C-303.013 153.069 -256.839 164.434 -177.917 147.657C-107.049 132.592 -61.4864 134.042 -0.374936 87.8677C56.9119 44.5829 79.9667 2.35804 117.023 -66.178C131.307 -92.596 140.444 -107.107 149.987 -136.518C158.291 -162.114 159.912 -177.79 164.445 -204.749C170.563 -241.136 172.861 -261.944 174.854 -299.005" stroke="#2B2E4A" stroke-opacity="0.6"/>
<path d="M-773.327 351.628C-697.217 294.491 -662.712 241.743 -578.435 205.319C-504.332 173.293 -457.656 177.904 -379.495 167.335C-299.868 156.568 -253.693 167.934 -174.772 151.157C-103.903 136.092 -58.3408 137.542 2.77069 91.3677C60.0575 48.0828 83.1124 5.85797 120.168 -62.678C134.452 -89.0961 143.59 -103.607 153.132 -133.019C161.437 -158.614 163.057 -174.29 167.59 -201.249C173.708 -237.636 176.006 -258.444 178 -295.505" stroke="#2B2E4A" stroke-opacity="0.6"/>
<path d="M-896 215.167C-819.89 158.03 -785.386 105.282 -701.108 68.8586C-627.005 36.8323 -580.329 41.4434 -502.168 30.8748C-422.541 20.1078 -376.367 31.4738 -297.445 14.6965C-226.576 -0.368985 -181.014 1.0817 -119.903 -45.093C-62.6157 -88.3778 -39.5609 -130.603 -2.50477 -199.139C11.779 -225.557 20.9163 -240.068 30.4591 -269.479C38.7638 -295.074 40.3841 -310.751 44.917 -337.709C51.0352 -374.096 53.3333 -394.905 55.3266 -431.966" stroke="#2B2E4A" stroke-opacity="0.6"/>
<path d="M-892.854 218.701C-816.744 161.564 -782.24 108.816 -697.963 72.3928C-623.859 40.3665 -577.183 44.9776 -499.022 34.4089C-419.395 23.642 -373.221 35.0079 -294.299 18.2306C-223.43 3.16519 -177.868 4.61588 -116.757 -41.5588C-59.4701 -84.8436 -36.4152 -127.068 0.640862 -195.604C14.9246 -222.023 24.0619 -236.534 33.6048 -265.945C41.9095 -291.54 43.5298 -307.217 48.0626 -334.175C54.1808 -370.562 56.4789 -391.371 58.4723 -428.432" stroke="#2B2E4A" stroke-opacity="0.6"/>
<path d="M-889.709 222.235C-813.599 165.098 -779.095 112.35 -694.817 75.927C-620.714 43.9007 -574.038 48.5118 -495.877 37.9431C-416.25 27.1762 -370.076 38.5421 -291.154 21.7648C-220.285 6.69937 -174.723 8.15006 -113.612 -38.0246C-56.3249 -81.3094 -33.2701 -123.534 3.786 -192.07C18.0697 -218.488 27.2071 -232.999 36.7499 -262.411C45.0546 -288.006 46.6749 -303.683 51.2078 -330.641C57.3259 -367.028 59.624 -387.837 61.6174 -424.897" stroke="#2B2E4A" stroke-opacity="0.6"/>
<path d="M-886.564 225.769C-810.454 168.632 -775.949 115.885 -691.672 79.4612C-617.568 47.4349 -570.893 52.046 -492.732 41.4773C-413.104 30.7103 -366.93 42.0763 -288.009 25.299C-217.14 10.2336 -171.578 11.6842 -110.466 -34.4904C-53.1793 -77.7753 -30.1245 -120 6.93163 -188.536C21.2154 -214.954 30.3527 -229.465 39.8955 -258.877C48.2002 -284.472 49.8205 -300.149 54.3534 -327.107C60.4716 -363.494 62.7697 -384.302 64.763 -421.363" stroke="#2B2E4A" stroke-opacity="0.6"/>
<path d="M-883.418 229.304C-807.308 172.167 -772.804 119.419 -688.526 82.9954C-614.423 50.969 -567.747 55.5801 -489.586 45.0115C-409.959 34.2445 -363.784 45.6105 -284.863 28.8332C-213.994 13.7677 -168.432 15.2184 -107.32 -30.9562C-50.0336 -74.2411 -26.9787 -116.466 10.0774 -185.002C24.3611 -211.42 33.4984 -225.931 43.0413 -255.342C51.346 -280.938 52.9663 -296.614 57.4991 -323.573C63.6173 -359.96 65.9154 -380.768 67.9088 -417.829" stroke="#2B2E4A" stroke-opacity="0.6"/>
<path d="M-880.272 232.838C-804.162 175.701 -769.658 122.953 -685.38 86.5295C-611.277 54.5032 -564.601 59.1143 -486.44 48.5457C-406.813 37.7787 -360.639 49.1447 -281.717 32.3674C-210.848 17.3019 -165.286 18.7526 -104.175 -27.4221C-46.8879 -70.7069 -23.8331 -112.932 13.223 -181.468C27.5067 -207.886 36.6441 -222.397 46.1869 -251.808C54.4916 -277.404 56.1119 -293.08 60.6448 -320.039C66.763 -356.425 69.0611 -377.234 71.0544 -414.295" stroke="#2B2E4A" stroke-opacity="0.6"/>
<path d="M-877.127 236.372C-801.017 179.235 -766.513 126.487 -682.236 90.0638C-608.132 58.0375 -561.456 62.6486 -483.296 52.0799C-403.668 41.3129 -357.494 52.6789 -278.572 35.9016C-207.704 20.8362 -162.141 22.2868 -101.03 -23.8878C-43.7432 -67.1727 -20.6883 -109.398 16.3678 -177.934C30.6515 -204.352 39.7888 -218.863 49.3317 -248.274C57.6364 -273.869 59.2567 -289.546 63.7895 -316.504C69.9077 -352.891 72.2058 -373.7 74.1992 -410.761" stroke="#2B2E4A" stroke-opacity="0.6"/>
<path d="M-873.982 239.906C-797.872 182.769 -763.367 130.021 -679.09 93.5979C-604.987 61.5716 -558.311 66.1827 -480.15 55.614C-400.522 44.8471 -354.348 56.213 -275.427 39.4357C-204.558 24.3703 -158.996 25.821 -97.8842 -20.3537C-40.5974 -63.6386 -17.5425 -105.863 19.5135 -174.399C33.7973 -200.817 42.9346 -215.329 52.4774 -244.74C60.7821 -270.335 62.4024 -286.012 66.9353 -312.97C73.0535 -349.357 75.3516 -370.166 77.3449 -407.226" stroke="#2B2E4A" stroke-opacity="0.6"/>
<path d="M-870.836 243.44C-794.726 186.303 -760.222 133.556 -675.944 97.1321C-601.841 65.1058 -555.165 69.7169 -477.004 59.1482C-397.377 48.3812 -351.203 59.7472 -272.281 42.9699C-201.412 27.9045 -155.85 29.3551 -94.7388 -16.8195C-37.452 -60.1044 -14.3972 -102.329 22.6589 -170.865C36.9427 -197.283 46.08 -211.794 55.6228 -241.206C63.9275 -266.801 65.5478 -282.478 70.0807 -309.436C76.1989 -345.823 78.497 -366.632 80.4903 -403.692" stroke="#2B2E4A" stroke-opacity="0.6"/>
<path d="M-867.691 246.974C-791.581 189.838 -757.076 137.09 -672.799 100.666C-598.696 68.6399 -552.02 73.251 -473.859 62.6824C-394.231 51.9154 -348.057 63.2814 -269.136 46.5041C-198.267 31.4386 -152.705 32.8893 -91.5932 -13.2854C-34.3064 -56.5702 -11.2515 -98.795 25.8046 -167.331C40.0883 -193.749 49.2256 -208.26 58.7685 -237.672C67.0731 -263.267 68.6935 -278.943 73.2263 -305.902C79.3445 -342.289 81.6426 -363.097 83.636 -400.158" stroke="#2B2E4A" stroke-opacity="0.6"/>
<path d="M-864.546 250.509C-788.436 193.372 -753.931 140.624 -669.654 104.2C-595.55 72.1741 -548.874 76.7852 -470.714 66.2166C-391.086 55.4496 -344.912 66.8156 -265.99 50.0383C-195.122 34.9728 -149.56 36.4235 -88.4481 -9.75117C-31.1612 -53.036 -8.10639 -95.2609 28.9497 -163.797C43.2334 -190.215 52.3708 -204.726 61.9136 -234.137C70.2183 -259.733 71.8386 -275.409 76.3715 -302.368C82.4896 -338.754 84.7877 -359.563 86.7811 -396.624" stroke="#2B2E4A" stroke-opacity="0.6"/>
<path d="M-861.4 254.043C-785.29 196.906 -750.786 144.158 -666.508 107.735C-592.405 75.7083 -545.729 80.3194 -467.568 69.7507C-387.941 58.9838 -341.767 70.3497 -262.845 53.5724C-191.976 38.507 -146.414 39.9577 -85.3027 -6.21699C-28.0159 -49.5018 -4.961 -91.7267 32.0951 -160.263C46.3788 -186.681 55.5161 -201.192 65.059 -230.603C73.3637 -256.198 74.984 -271.875 79.5168 -298.833C85.635 -335.22 87.9331 -356.029 89.9265 -393.09" stroke="#2B2E4A" stroke-opacity="0.6"/>
<path d="M-858.255 257.577C-782.145 200.44 -747.64 147.692 -663.363 111.269C-589.259 79.2425 -542.583 83.8536 -464.423 73.285C-384.795 62.518 -338.621 73.884 -259.699 57.1067C-188.831 42.0412 -143.269 43.4919 -82.157 -2.68275C-24.8702 -45.9676 -1.81537 -88.1924 35.2407 -156.728C49.5244 -183.146 58.6618 -197.658 68.2046 -227.069C76.5093 -252.664 78.1296 -268.341 82.6625 -295.299C88.7807 -331.686 91.0788 -352.495 93.0721 -389.555" stroke="#2B2E4A" stroke-opacity="0.6"/>
<path d="M-855.109 261.111C-778.999 203.974 -744.495 151.226 -660.217 114.803C-586.114 82.7767 -539.438 87.3878 -461.277 76.8191C-381.65 66.0521 -335.475 77.4181 -256.554 60.6408C-185.685 45.5754 -140.123 47.026 -79.0114 0.851367C-21.7246 -42.4335 1.33026 -84.6583 38.3863 -153.194C52.6701 -179.612 61.8074 -194.124 71.3502 -223.535C79.6549 -249.13 81.2752 -264.807 85.8081 -291.765C91.9263 -328.152 94.2244 -348.961 96.2178 -386.021" stroke="#2B2E4A" stroke-opacity="0.6"/>
<path d="M-851.964 264.645C-775.854 207.508 -741.349 154.761 -657.072 118.337C-582.969 86.3108 -536.293 90.9219 -458.132 80.3533C-378.504 69.5863 -332.33 80.9523 -253.409 64.175C-182.54 49.1095 -136.978 50.5602 -75.8663 4.38555C-18.5795 -38.8993 4.4754 -81.1241 41.5315 -149.66C55.8152 -176.078 64.9525 -190.589 74.4954 -220.001C82.8001 -245.596 84.4204 -261.273 88.9532 -288.231C95.0714 -324.618 97.3695 -345.426 99.3629 -382.487" stroke="#2B2E4A" stroke-opacity="0.6"/>
<path d="M-848.818 268.18C-772.708 211.043 -738.204 158.295 -653.927 121.871C-579.823 89.8451 -533.147 94.4562 -454.986 83.8875C-375.359 73.1206 -329.185 84.4865 -250.263 67.7092C-179.394 52.6438 -133.832 54.0945 -72.7209 7.91979C-15.4341 -35.3651 7.62078 -77.5899 44.6769 -146.126C58.9606 -172.544 68.0979 -187.055 77.6408 -216.466C85.9455 -242.062 87.5658 -257.738 92.0986 -284.697C98.2168 -321.083 100.515 -341.892 102.508 -378.953" stroke="#2B2E4A" stroke-opacity="0.6"/>
<path d="M-845.673 271.714C-769.563 214.577 -735.059 161.829 -650.781 125.406C-576.678 93.3792 -530.002 97.9903 -451.841 87.4216C-372.214 76.6547 -326.04 88.0206 -247.118 71.2433C-176.249 56.1779 -130.687 57.6286 -69.5755 11.4539C-12.2887 -31.8309 10.7662 -74.0558 47.8223 -142.592C62.106 -169.01 71.2433 -183.521 80.7862 -212.932C89.0908 -238.528 90.7112 -254.204 95.244 -281.163C101.362 -317.549 103.66 -338.358 105.654 -375.419" stroke="#2B2E4A" stroke-opacity="0.6"/>
<path d="M-842.527 275.248C-766.417 218.111 -731.913 165.363 -647.635 128.94C-573.532 96.9134 -526.856 101.525 -448.695 90.9559C-369.068 80.1889 -322.894 91.5549 -243.972 74.7776C-173.103 59.7121 -127.541 61.1628 -66.4295 14.9881C-9.14269 -28.2967 13.9122 -70.5215 50.9683 -139.058C65.252 -165.476 74.3893 -179.987 83.9322 -209.398C92.2368 -234.993 93.8572 -250.67 98.39 -277.628C104.508 -314.015 106.806 -334.824 108.8 -371.885" stroke="#2B2E4A" stroke-opacity="0.6"/>
<path d="M-839.382 278.782C-763.272 221.645 -728.767 168.897 -644.49 132.474C-570.386 100.448 -523.711 105.059 -445.55 94.49C-365.922 83.723 -319.748 95.089 -240.827 78.3117C-169.958 63.2462 -124.396 64.6969 -63.2841 18.5223C-5.9973 -24.7626 17.0576 -66.9874 54.1136 -135.523C68.3974 -161.941 77.5347 -176.453 87.0775 -205.864C95.3822 -231.459 97.0025 -247.136 101.535 -274.094C107.654 -310.481 109.952 -331.29 111.945 -368.35" stroke="#2B2E4A" stroke-opacity="0.6"/>
<path d="M-836.236 282.316C-760.126 225.179 -725.622 172.432 -641.344 136.008C-567.241 103.982 -520.565 108.593 -442.404 98.0242C-362.777 87.2572 -316.603 98.6232 -237.681 81.8459C-166.812 66.7804 -121.25 68.2311 -60.1387 22.0564C-2.85191 -21.2284 20.2029 -63.4532 57.259 -131.989C71.5428 -158.407 80.6801 -172.918 90.2229 -202.33C98.5276 -227.925 100.148 -243.602 104.681 -270.56C110.799 -306.947 113.097 -327.756 115.09 -364.816" stroke="#2B2E4A" stroke-opacity="0.6"/>
<path d="M-833.09 285.851C-756.98 228.714 -722.476 175.966 -638.198 139.542C-564.095 107.516 -517.419 112.127 -439.258 101.558C-359.631 90.7915 -313.457 102.157 -234.535 85.3801C-163.666 70.3147 -118.104 71.7654 -56.9929 25.5907C0.293959 -17.6942 23.3488 -59.919 60.4049 -128.455C74.6886 -154.873 83.826 -169.384 93.3688 -198.795C101.673 -224.391 103.294 -240.067 107.827 -267.026C113.945 -303.413 116.243 -324.221 118.236 -361.282" stroke="#2B2E4A" stroke-opacity="0.6"/>
<path d="M-829.945 289.385C-753.835 232.248 -719.331 179.5 -635.053 143.076C-560.95 111.05 -514.274 115.661 -436.113 105.093C-356.486 94.3256 -310.311 105.692 -231.39 88.9142C-160.521 73.8488 -114.959 75.2995 -53.8475 29.1248C3.43935 -14.16 26.4942 -56.3849 63.5503 -124.921C77.834 -151.339 86.9713 -165.85 96.5142 -195.261C104.819 -220.857 106.439 -236.533 110.972 -263.492C117.09 -299.878 119.388 -320.687 121.382 -357.748" stroke="#2B2E4A" stroke-opacity="0.6"/>
<path d="M-826.8 292.919C-750.69 235.782 -716.185 183.034 -631.908 146.611C-557.804 114.584 -511.128 119.195 -432.968 108.627C-353.34 97.8598 -307.166 109.226 -228.245 92.4484C-157.376 77.383 -111.814 78.8337 -50.7021 32.659C6.58473 -10.6259 29.6396 -52.8507 66.6957 -121.387C80.9794 -147.805 90.1167 -162.316 99.6596 -191.727C107.964 -217.322 109.585 -232.999 114.117 -259.957C120.236 -296.344 122.534 -317.153 124.527 -354.214" stroke="#2B2E4A" stroke-opacity="0.6"/>
<path d="M-823.654 296.453C-747.544 239.316 -713.04 186.568 -628.762 150.145C-554.659 118.118 -507.983 122.73 -429.822 112.161C-350.195 101.394 -304.021 112.76 -225.099 95.9826C-154.23 80.9171 -108.668 82.3678 -47.5567 36.1932C9.73012 -7.09168 32.785 -49.3165 69.8411 -117.853C84.1248 -144.271 93.2621 -158.782 102.805 -188.193C111.11 -213.788 112.73 -229.465 117.263 -256.423C123.381 -292.81 125.679 -313.619 127.672 -350.68" stroke="#2B2E4A" stroke-opacity="0.6"/>
<path d="M-820.508 299.987C-744.398 242.85 -709.894 190.102 -625.617 153.679C-551.513 121.653 -504.837 126.264 -426.677 115.695C-347.049 104.928 -300.875 116.294 -221.953 99.5168C-151.085 84.4514 -105.522 85.9021 -44.4109 39.7274C12.8759 -3.55744 35.9307 -45.7823 72.9868 -114.318C87.2705 -140.736 96.4079 -155.247 105.951 -184.659C114.255 -210.254 115.876 -225.931 120.409 -252.889C126.527 -289.276 128.825 -310.085 130.818 -347.145" stroke="#2B2E4A" stroke-opacity="0.6"/>
<path d="M-817.363 303.521C-741.253 246.384 -706.749 193.637 -622.471 157.213C-548.368 125.187 -501.692 129.798 -423.531 119.229C-343.904 108.462 -297.73 119.828 -218.808 103.051C-147.939 87.9856 -102.377 89.4363 -41.2658 43.2616C16.021 -0.0232554 39.0759 -42.2481 76.132 -110.784C90.4157 -137.202 99.553 -151.713 109.096 -181.125C117.401 -206.72 119.021 -222.397 123.554 -249.355C129.672 -285.742 131.97 -306.55 133.963 -343.611" stroke="#2B2E4A" stroke-opacity="0.6"/>
<path d="M-814.218 307.056C-738.108 249.919 -703.604 197.171 -619.326 160.747C-545.223 128.721 -498.547 133.332 -420.386 122.763C-340.759 111.996 -294.585 123.362 -215.663 106.585C-144.794 91.5197 -99.232 92.9704 -38.1205 46.7957C19.1663 3.51086 42.2211 -38.714 79.2772 -107.25C93.5609 -133.668 102.698 -148.179 112.241 -177.59C120.546 -203.186 122.166 -218.862 126.699 -245.821C132.817 -282.208 135.115 -303.016 137.109 -340.077" stroke="#2B2E4A" stroke-opacity="0.6"/>
<path d="M-811.073 310.59C-734.963 253.453 -700.458 200.705 -616.181 164.281C-542.077 132.255 -495.401 136.866 -417.241 126.298C-337.613 115.531 -291.439 126.897 -212.517 110.119C-141.649 95.0539 -96.0865 96.5046 -34.975 50.3299C22.3118 7.04504 45.3666 -35.1798 82.4227 -103.716C96.7065 -130.134 105.844 -144.645 115.387 -174.056C123.691 -199.652 125.312 -215.328 129.844 -242.287C135.963 -278.673 138.261 -299.482 140.254 -336.543" stroke="#2B2E4A" stroke-opacity="0.6"/>
<path d="M-807.927 314.124C-731.817 256.987 -697.312 204.239 -613.035 167.816C-538.932 135.789 -492.256 140.401 -414.095 129.832C-334.467 119.065 -288.293 130.431 -209.372 113.654C-138.503 98.5881 -92.9406 100.039 -31.8292 53.8641C25.4577 10.5793 48.5125 -31.6456 85.5686 -100.182C99.8523 -126.6 108.99 -141.111 118.532 -170.522C126.837 -196.117 128.457 -211.794 132.99 -238.752C139.109 -275.139 141.407 -295.948 143.4 -333.009" stroke="#2B2E4A" stroke-opacity="0.6"/>
<path d="M-804.781 317.658C-728.671 260.521 -694.167 207.773 -609.889 171.35C-535.786 139.324 -489.11 143.935 -410.949 133.366C-331.322 122.599 -285.148 133.965 -206.226 117.188C-135.357 102.122 -89.7952 103.573 -28.6838 57.3983C28.603 14.1135 51.6579 -28.1114 88.714 -96.6474C102.998 -123.065 112.135 -137.577 121.678 -166.988C129.983 -192.583 131.603 -208.26 136.136 -235.218C142.254 -271.605 144.552 -292.414 146.545 -329.474" stroke="#2B2E4A" stroke-opacity="0.6"/>
<path d="M-801.636 321.192C-725.526 264.055 -691.022 211.308 -606.744 174.884C-532.641 142.858 -485.965 147.469 -407.804 136.9C-328.177 126.133 -282.002 137.499 -203.081 120.722C-132.212 105.656 -86.6498 107.107 -25.5384 60.9325C31.7484 17.6476 54.8033 -24.5772 91.8594 -93.1132C106.143 -119.531 115.28 -134.042 124.823 -163.454C133.128 -189.049 134.748 -204.726 139.281 -231.684C145.399 -268.071 147.697 -288.879 149.691 -325.94" stroke="#2B2E4A" stroke-opacity="0.6"/>
<path d="M-798.49 324.727C-722.38 267.59 -687.876 214.842 -603.599 178.418C-529.495 146.392 -482.819 151.003 -404.659 140.434C-325.031 129.668 -278.857 141.033 -199.935 124.256C-129.067 109.191 -83.5045 110.641 -22.393 64.4667C34.8938 21.1819 57.9487 -21.043 95.0048 -89.579C109.288 -115.997 118.426 -130.508 127.969 -159.919C136.273 -185.515 137.894 -201.191 142.427 -228.15C148.545 -264.537 150.843 -285.345 152.836 -322.406" stroke="#2B2E4A" stroke-opacity="0.6"/>
<path d="M-795.345 328.261C-719.235 271.124 -684.731 218.376 -600.453 181.952C-526.35 149.926 -479.674 154.537 -401.513 143.969C-321.886 133.202 -275.711 144.568 -196.79 127.79C-125.921 112.725 -80.3588 114.175 -19.2474 68.0008C38.0394 24.7159 61.0943 -17.5089 98.1504 -86.0449C112.434 -112.463 121.571 -126.974 131.114 -156.385C139.419 -181.981 141.039 -197.657 145.572 -224.616C151.69 -261.003 153.988 -281.811 155.982 -318.872" stroke="#2B2E4A" stroke-opacity="0.6"/>
<path d="M-792.2 331.795C-716.09 274.658 -681.586 221.91 -597.308 185.487C-523.205 153.46 -476.529 158.071 -398.368 147.503C-318.741 136.736 -272.566 148.102 -193.645 131.324C-122.776 116.259 -77.2139 117.71 -16.1025 71.535C41.1843 28.2502 64.2392 -13.9747 101.295 -82.5107C115.579 -108.929 124.716 -123.44 134.259 -152.851C142.564 -178.446 144.184 -194.123 148.717 -221.081C154.835 -257.468 157.133 -278.277 159.127 -315.338" stroke="#2B2E4A" stroke-opacity="0.6"/>
<path d="M-789.054 335.329C-712.944 278.192 -678.44 225.444 -594.162 189.021C-520.059 156.994 -473.383 161.606 -395.222 151.037C-315.595 140.27 -269.421 151.636 -190.499 134.859C-119.63 119.793 -74.0683 121.244 -12.9568 75.0692C44.33 31.7844 67.3848 -10.4405 104.441 -78.9765C118.725 -105.395 127.862 -119.906 137.405 -149.317C145.709 -174.912 147.33 -190.589 151.863 -217.547C157.981 -253.934 160.279 -274.743 162.272 -311.804" stroke="#2B2E4A" stroke-opacity="0.6"/>
<path d="M-785.909 338.863C-709.799 281.726 -675.295 228.978 -591.017 192.555C-516.914 160.529 -470.238 165.14 -392.077 154.571C-312.45 143.804 -266.276 155.17 -187.354 138.393C-116.485 123.327 -70.9232 124.778 -9.8117 78.6034C47.4751 35.3185 70.53 -6.90631 107.586 -75.4423C121.87 -101.86 131.007 -116.371 140.55 -145.783C148.855 -171.378 150.475 -187.055 155.008 -214.013C161.126 -250.4 163.424 -271.209 165.417 -308.269" stroke="#2B2E4A" stroke-opacity="0.6"/>
<path d="M-782.763 342.397C-706.653 285.261 -672.149 232.513 -587.871 196.089C-513.768 164.063 -467.092 168.674 -388.931 158.105C-309.304 147.338 -263.13 158.704 -184.208 141.927C-113.339 126.862 -67.7772 128.312 -6.66571 82.1376C50.6211 38.8528 73.676 -3.37207 110.732 -71.9081C125.016 -98.3261 134.153 -112.837 143.696 -142.249C152.001 -167.844 153.621 -183.521 158.154 -210.479C164.272 -246.866 166.57 -267.674 168.563 -304.735" stroke="#2B2E4A" stroke-opacity="0.6"/>
<path d="M-779.618 345.932C-703.508 288.795 -669.003 236.047 -584.726 199.623C-510.623 167.597 -463.947 172.208 -385.786 161.639C-306.159 150.872 -259.984 162.238 -181.063 145.461C-110.194 130.396 -64.6318 131.846 -3.52032 85.6717C53.7665 42.3868 76.8213 0.161991 113.877 -68.374C128.161 -94.7921 137.298 -109.303 146.841 -138.715C155.146 -164.31 156.766 -179.986 161.299 -206.945C167.417 -243.332 169.715 -264.14 171.709 -301.201" stroke="#2B2E4A" stroke-opacity="0.6"/>
<path d="M-776.472 349.466C-700.362 292.329 -665.858 239.581 -581.581 203.158C-507.477 171.131 -460.801 175.742 -382.641 165.174C-303.013 154.407 -256.839 165.773 -177.917 148.995C-107.049 133.93 -61.4864 135.381 -0.374936 89.2059C56.9119 45.9211 79.9667 3.69623 117.023 -64.8398C131.307 -91.2578 140.444 -105.769 149.987 -135.18C158.291 -160.776 159.912 -176.452 164.445 -203.411C170.563 -239.797 172.861 -260.606 174.854 -297.667" stroke="#2B2E4A" stroke-opacity="0.6"/>
<path d="M-773.327 353C-697.217 295.863 -662.712 243.115 -578.435 206.692C-504.332 174.665 -457.656 179.276 -379.495 168.708C-299.868 157.941 -253.693 169.307 -174.772 152.53C-103.903 137.464 -58.3408 138.915 2.77069 92.7401C60.0575 49.4553 83.1124 7.23041 120.168 -61.3056C134.452 -87.7236 143.59 -102.235 153.132 -131.646C161.437 -157.241 163.057 -172.918 167.59 -199.876C173.708 -236.263 176.006 -257.072 178 -294.133" stroke="#2B2E4A" stroke-opacity="0.6"/>
</svg>
